<?xml version="1.0" encoding="UTF-8"?>
<svg width="150px" height="141px" viewBox="0 0 150 141" version="1.1" xmlns="http://www.w3.org/2000/svg" xmlns:xlink="http://www.w3.org/1999/xlink">
    <!-- Generator: Sketch 52.6 (67491) - http://www.bohemiancoding.com/sketch -->
    <title>logo2</title>
    <desc>Created with Sketch.</desc>
    <g id="Page-1" stroke="none" stroke-width="1" fill="none" fill-rule="evenodd">
        <g id="logo-big" transform="translate(0.000000, -26.000000)">
            <g id="logo2" transform="translate(0.000000, 26.000000)">
                <path d="M59.2168781,136.279317 C57.4040349,135.292968 55.879515,133.738737 54.940374,131.724743 L40,99.6850073 L40,130 C40,135.522847 35.5228475,140 30,140 L10,140 C4.4771525,140 6.76353751e-16,135.522847 0,130 L0,10 C-6.76353751e-16,4.4771525 4.4771525,-6.09089673e-15 10,-7.10542736e-15 L30,0 C30.9406204,-1.72789163e-16 31.8509083,0.129868721 32.7139113,0.372653706 C35.9882366,0.80454481 38.979266,2.84797288 40.4784941,6.06307787 L74.7991508,79.6639638 L108.6535,7.06307787 C110.152728,3.84797288 113.143757,1.80454481 116.418083,1.37265371 C117.281086,1.12986872 118.191374,1 119.131994,1 L139.131994,1 C144.654842,1 149.131994,5.4771525 149.131994,11 L149.131994,131 C149.131994,136.522847 144.654842,141 139.131994,141 L119.131994,141 C113.609147,141 109.131994,136.522847 109.131994,131 L109.131994,100.685007 L94.19162,132.724743 C92.9093459,135.474589 90.5357889,137.367329 87.8270645,138.12776 C86.1863425,139.306134 84.1742018,140 82,140 L67,140 C63.8555392,140 61.0500562,138.548663 59.2168781,136.279317 Z" id="Combined-Shape" fill="#4ECDC4"></path>
                <path d="M95,40 L95,131 C95,136.522847 90.5228475,141 85,141 L65,141 C59.4771525,141 55,136.522847 55,131 L55,40 L10,40 C4.4771525,40 0,35.5228475 0,30 L0,10 C0,4.4771525 4.4771525,4.96401655e-15 10,3.94948593e-15 L139,-3.94948593e-15 C144.522847,-4.96401655e-15 149,4.4771525 149,10 L149,30 C149,35.5228475 144.522847,40 139,40 L95,40 Z" id="Combined-Shape" fill="#FF686B"></path>
            </g>
        </g>
    </g>
</svg>